<svg width="24" height="24" viewBox="0 0 24 24" fill="none" xmlns="http://www.w3.org/2000/svg">
<path fill-rule="evenodd" clip-rule="evenodd" d="M6.4443 20.3147C8.08879 21.4135 10.0222 22 12 22C14.6512 21.997 17.193 20.9425 19.0678 19.0678C20.9425 17.193 21.997 14.6512 22 12C22 10.0222 21.4135 8.08879 20.3147 6.4443C19.2159 4.79981 17.6541 3.51809 15.8268 2.76121C13.9996 2.00433 11.9889 1.8063 10.0491 2.19215C8.10929 2.578 6.32746 3.53041 4.92894 4.92894C3.53041 6.32746 2.578 8.10929 2.19215 10.0491C1.8063 11.9889 2.00433 13.9996 2.76121 15.8268C3.51809 17.6541 4.79981 19.2159 6.4443 20.3147ZM17.4542 8.81818H10.1815L6.54512 15.1818H13.8178L17.4542 8.81818Z" fill="white"/>
</svg>
