<svg width="24" height="24" viewBox="0 0 24 24" fill="none" xmlns="http://www.w3.org/2000/svg">
<path d="M21.0864 7.30737C19.9412 2.26856 15.5459 0 11.685 0C11.685 0 11.685 0 11.6741 0C7.82406 0 3.41782 2.25765 2.27264 7.29646C0.996577 12.9242 4.44304 17.6904 7.5623 20.6897C8.71839 21.8021 10.2017 23.3521 11.685 23.3521C13.1682 23.3521 14.6515 21.8021 15.7967 20.6897C18.916 17.6904 22.3624 12.9351 21.0864 7.30737ZM11.685 12.7715C9.78723 12.7715 8.24941 11.2337 8.24941 9.33598C8.24941 7.43824 9.78723 5.90042 11.685 5.90042C13.5827 5.90042 15.1205 7.43824 15.1205 9.33598C15.1205 11.2337 13.5827 12.7715 11.685 12.7715Z" fill="white"/>
</svg>
