<svg width="24" height="24" viewBox="0 0 24 24" fill="none" xmlns="http://www.w3.org/2000/svg">
<path d="M5.841 20.1931C7.01977 21.35 8.61854 22 10.2856 22C11.9518 21.9987 13.5494 21.3488 14.7281 20.1929C15.9067 19.037 16.5702 17.4694 16.5728 15.8341V10.2258C17.7854 10.9146 19.1622 11.276 20.5632 11.2733C20.6775 11.2704 20.7864 11.2247 20.8676 11.1456C20.9488 11.0666 20.9962 10.96 21 10.8478L20.9916 7.75826C20.9916 7.64872 20.9472 7.54366 20.8683 7.46619C20.7894 7.38873 20.6824 7.34522 20.5707 7.34522C19.5096 7.34325 18.4926 6.92807 17.743 6.19083C16.9935 5.4536 16.5726 4.45456 16.5728 3.41304C16.5728 3.3035 16.5285 3.19844 16.4496 3.12098C16.3706 3.04352 16.2636 3 16.152 3H12.9646C12.853 3 12.7459 3.04352 12.667 3.12098C12.5881 3.19844 12.5438 3.3035 12.5438 3.41304V15.7903C12.543 15.8041 12.543 15.8179 12.5438 15.8316C12.5441 16.269 12.4119 16.6966 12.1641 17.0601C11.9163 17.4236 11.5641 17.7067 11.152 17.8733C10.74 18.0399 10.2868 18.0826 9.85001 17.9958C9.41323 17.9091 9.01255 17.697 8.69887 17.3863C8.38519 17.0756 8.17265 16.6805 8.08826 16.251C8.00387 15.8215 8.05142 15.3772 8.22489 14.9743C8.39835 14.5714 8.6899 14.2282 9.0625 13.9883C9.4351 13.7483 9.87195 13.6225 10.3176 13.6268C10.4265 13.6188 10.5288 13.5727 10.6061 13.4969C10.6833 13.4211 10.7302 13.3206 10.7384 13.2137V10.0746C10.7305 9.96219 10.6793 9.85694 10.5952 9.78023C10.5111 9.70351 10.4004 9.66109 10.2856 9.66157C8.61854 9.66157 7.01977 10.3115 5.841 11.4685C4.66223 12.6254 4 14.1946 4 15.8308C4 17.467 4.66223 19.0361 5.841 20.1931Z" fill="white"/>
</svg>
