<svg width="20" height="20" viewBox="0 0 20 20" fill="none" xmlns="http://www.w3.org/2000/svg">
<path d="M17.6249 5.14159C17.2833 4.95825 16.5666 4.76659 15.5916 5.44992L14.3666 6.31659C14.2749 3.72492 13.1499 2.70825 10.4166 2.70825H5.41658C2.56659 2.70825 1.45825 3.81659 1.45825 6.66659V13.3333C1.45825 15.2499 2.49992 17.2916 5.41658 17.2916H10.4166C13.1499 17.2916 14.2749 16.2749 14.3666 13.6833L15.5916 14.5499C16.1082 14.9166 16.5582 15.0333 16.9166 15.0333C17.2249 15.0333 17.4666 14.9416 17.6249 14.8583C17.9666 14.6833 18.5416 14.2083 18.5416 13.0166V6.98325C18.5416 5.79159 17.9666 5.31659 17.6249 5.14159ZM9.16658 9.48325C8.30825 9.48325 7.59992 8.78325 7.59992 7.91659C7.59992 7.04992 8.30825 6.34992 9.16658 6.34992C10.0249 6.34992 10.7333 7.04992 10.7333 7.91659C10.7333 8.78325 10.0249 9.48325 9.16658 9.48325Z" fill="#F91E13"/>
</svg>
